<svg xmlns="http://www.w3.org/2000/svg" viewBox="0 0 371 522" role="img" aria-label="병합 정렬 분할-병합 트리 다이어그램">
<defs>
<marker id="arrow" viewBox="0 0 10 10" refX="8" refY="5" markerWidth="6" markerHeight="6" orient="auto-start-reverse">
<path d="M 0 0 L 10 5 L 0 10 z" fill="#2a3358"/>
</marker>
</defs>
<rect x="0" y="0" width="371" height="522" fill="none"/>
<path d="M 208.5 80 L 130.0 118" stroke="#c9ccc7" stroke-width="1.3" fill="none"/><path d="M 208.5 80 L 287.0 118" stroke="#c9ccc7" stroke-width="1.3" fill="none"/><path d="M 130.0 144 L 78.0 182" stroke="#c9ccc7" stroke-width="1.3" fill="none"/><path d="M 130.0 144 L 165.0 182" stroke="#c9ccc7" stroke-width="1.3" fill="none"/><path d="M 287.0 144 L 252.0 182" stroke="#c9ccc7" stroke-width="1.3" fill="none"/><path d="M 287.0 144 L 339.0 182" stroke="#c9ccc7" stroke-width="1.3" fill="none"/><path d="M 78.0 208 L 26.5 246" stroke="#c9ccc7" stroke-width="1.3" fill="none"/><path d="M 78.0 208 L 78.5 246" stroke="#c9ccc7" stroke-width="1.3" fill="none"/><path d="M 165.0 208 L 130.5 246" stroke="#c9ccc7" stroke-width="1.3" fill="none"/><path d="M 165.0 208 L 182.5 246" stroke="#c9ccc7" stroke-width="1.3" fill="none"/><path d="M 252.0 208 L 234.5 246" stroke="#c9ccc7" stroke-width="1.3" fill="none"/><path d="M 252.0 208 L 286.5 246" stroke="#c9ccc7" stroke-width="1.3" fill="none"/><path d="M 339.0 208 L 338.5 246" stroke="#c9ccc7" stroke-width="1.3" fill="none"/><path d="M 339.0 208 L 390.5 246" stroke="#c9ccc7" stroke-width="1.3" fill="none"/><path d="M 26.5 272 L 78.0 310" stroke="#2a3358" stroke-width="1.3" fill="none" marker-end="url(#arrow)"/><path d="M 78.5 272 L 78.0 310" stroke="#2a3358" stroke-width="1.3" fill="none" marker-end="url(#arrow)"/><path d="M 130.5 272 L 165.0 310" stroke="#2a3358" stroke-width="1.3" fill="none" marker-end="url(#arrow)"/><path d="M 182.5 272 L 165.0 310" stroke="#2a3358" stroke-width="1.3" fill="none" marker-end="url(#arrow)"/><path d="M 234.5 272 L 252.0 310" stroke="#2a3358" stroke-width="1.3" fill="none" marker-end="url(#arrow)"/><path d="M 286.5 272 L 252.0 310" stroke="#2a3358" stroke-width="1.3" fill="none" marker-end="url(#arrow)"/><path d="M 338.5 272 L 339.0 310" stroke="#2a3358" stroke-width="1.3" fill="none" marker-end="url(#arrow)"/><path d="M 390.5 272 L 339.0 310" stroke="#2a3358" stroke-width="1.3" fill="none" marker-end="url(#arrow)"/><path d="M 78.0 336 L 130.0 374" stroke="#2a3358" stroke-width="1.3" fill="none" marker-end="url(#arrow)"/><path d="M 165.0 336 L 130.0 374" stroke="#2a3358" stroke-width="1.3" fill="none" marker-end="url(#arrow)"/><path d="M 252.0 336 L 287.0 374" stroke="#2a3358" stroke-width="1.3" fill="none" marker-end="url(#arrow)"/><path d="M 339.0 336 L 287.0 374" stroke="#2a3358" stroke-width="1.3" fill="none" marker-end="url(#arrow)"/><path d="M 130.0 400 L 208.5 438" stroke="#2a3358" stroke-width="1.3" fill="none" marker-end="url(#arrow)"/><path d="M 287.0 400 L 208.5 438" stroke="#2a3358" stroke-width="1.3" fill="none" marker-end="url(#arrow)"/>
<rect x="66.0" y="50" width="285.0" height="34" rx="6" fill="#dfe2f0" opacity="0.55"/><rect x="57.5" y="114" width="145.0" height="34" rx="6" fill="#dfe2f0" opacity="0.55"/><rect x="214.5" y="114" width="145.0" height="34" rx="6" fill="#dfe2f0" opacity="0.55"/><rect x="40.5" y="178" width="75.0" height="34" rx="6" fill="#dfe2f0" opacity="0.55"/><rect x="127.5" y="178" width="75.0" height="34" rx="6" fill="#dfe2f0" opacity="0.55"/><rect x="214.5" y="178" width="75.0" height="34" rx="6" fill="#dfe2f0" opacity="0.55"/><rect x="301.5" y="178" width="75.0" height="34" rx="6" fill="#dfe2f0" opacity="0.55"/><rect x="6.5" y="242" width="40.0" height="34" rx="6" fill="#dfe2f0" opacity="0.55"/><rect x="58.5" y="242" width="40.0" height="34" rx="6" fill="#dfe2f0" opacity="0.55"/><rect x="110.5" y="242" width="40.0" height="34" rx="6" fill="#dfe2f0" opacity="0.55"/><rect x="162.5" y="242" width="40.0" height="34" rx="6" fill="#dfe2f0" opacity="0.55"/><rect x="214.5" y="242" width="40.0" height="34" rx="6" fill="#dfe2f0" opacity="0.55"/><rect x="266.5" y="242" width="40.0" height="34" rx="6" fill="#dfe2f0" opacity="0.55"/><rect x="318.5" y="242" width="40.0" height="34" rx="6" fill="#dfe2f0" opacity="0.55"/><rect x="370.5" y="242" width="40.0" height="34" rx="6" fill="#dfe2f0" opacity="0.55"/><rect x="40.5" y="306" width="75.0" height="34" rx="6" fill="#dfe2f0" opacity="0.55"/><rect x="127.5" y="306" width="75.0" height="34" rx="6" fill="#dfe2f0" opacity="0.55"/><rect x="214.5" y="306" width="75.0" height="34" rx="6" fill="#dfe2f0" opacity="0.55"/><rect x="301.5" y="306" width="75.0" height="34" rx="6" fill="#dfe2f0" opacity="0.55"/><rect x="57.5" y="370" width="145.0" height="34" rx="6" fill="#dfe2f0" opacity="0.55"/><rect x="214.5" y="370" width="145.0" height="34" rx="6" fill="#dfe2f0" opacity="0.55"/><rect x="66.0" y="434" width="285.0" height="34" rx="6" fill="#dfe2f0" opacity="0.55"/>
<rect x="70.0" y="54" width="32" height="26" rx="4" fill="#fbfbfa" stroke="#43507e" stroke-width="1.2"/><text x="86.0" y="67" font-family="'JetBrains Mono',monospace" font-size="13" fill="#16181c" text-anchor="middle" dominant-baseline="central">5</text><rect x="105.0" y="54" width="32" height="26" rx="4" fill="#fbfbfa" stroke="#43507e" stroke-width="1.2"/><text x="121.0" y="67" font-family="'JetBrains Mono',monospace" font-size="13" fill="#16181c" text-anchor="middle" dominant-baseline="central">2</text><rect x="140.0" y="54" width="32" height="26" rx="4" fill="#fbfbfa" stroke="#43507e" stroke-width="1.2"/><text x="156.0" y="67" font-family="'JetBrains Mono',monospace" font-size="13" fill="#16181c" text-anchor="middle" dominant-baseline="central">4</text><rect x="175.0" y="54" width="32" height="26" rx="4" fill="#fbfbfa" stroke="#43507e" stroke-width="1.2"/><text x="191.0" y="67" font-family="'JetBrains Mono',monospace" font-size="13" fill="#16181c" text-anchor="middle" dominant-baseline="central">7</text><rect x="210.0" y="54" width="32" height="26" rx="4" fill="#fbfbfa" stroke="#43507e" stroke-width="1.2"/><text x="226.0" y="67" font-family="'JetBrains Mono',monospace" font-size="13" fill="#16181c" text-anchor="middle" dominant-baseline="central">1</text><rect x="245.0" y="54" width="32" height="26" rx="4" fill="#fbfbfa" stroke="#43507e" stroke-width="1.2"/><text x="261.0" y="67" font-family="'JetBrains Mono',monospace" font-size="13" fill="#16181c" text-anchor="middle" dominant-baseline="central">3</text><rect x="280.0" y="54" width="32" height="26" rx="4" fill="#fbfbfa" stroke="#43507e" stroke-width="1.2"/><text x="296.0" y="67" font-family="'JetBrains Mono',monospace" font-size="13" fill="#16181c" text-anchor="middle" dominant-baseline="central">6</text><rect x="315.0" y="54" width="32" height="26" rx="4" fill="#fbfbfa" stroke="#43507e" stroke-width="1.2"/><text x="331.0" y="67" font-family="'JetBrains Mono',monospace" font-size="13" fill="#16181c" text-anchor="middle" dominant-baseline="central">8</text><rect x="61.5" y="118" width="32" height="26" rx="4" fill="#fbfbfa" stroke="#43507e" stroke-width="1.2"/><text x="77.5" y="131" font-family="'JetBrains Mono',monospace" font-size="13" fill="#16181c" text-anchor="middle" dominant-baseline="central">5</text><rect x="96.5" y="118" width="32" height="26" rx="4" fill="#fbfbfa" stroke="#43507e" stroke-width="1.2"/><text x="112.5" y="131" font-family="'JetBrains Mono',monospace" font-size="13" fill="#16181c" text-anchor="middle" dominant-baseline="central">2</text><rect x="131.5" y="118" width="32" height="26" rx="4" fill="#fbfbfa" stroke="#43507e" stroke-width="1.2"/><text x="147.5" y="131" font-family="'JetBrains Mono',monospace" font-size="13" fill="#16181c" text-anchor="middle" dominant-baseline="central">4</text><rect x="166.5" y="118" width="32" height="26" rx="4" fill="#fbfbfa" stroke="#43507e" stroke-width="1.2"/><text x="182.5" y="131" font-family="'JetBrains Mono',monospace" font-size="13" fill="#16181c" text-anchor="middle" dominant-baseline="central">7</text><rect x="218.5" y="118" width="32" height="26" rx="4" fill="#fbfbfa" stroke="#43507e" stroke-width="1.2"/><text x="234.5" y="131" font-family="'JetBrains Mono',monospace" font-size="13" fill="#16181c" text-anchor="middle" dominant-baseline="central">1</text><rect x="253.5" y="118" width="32" height="26" rx="4" fill="#fbfbfa" stroke="#43507e" stroke-width="1.2"/><text x="269.5" y="131" font-family="'JetBrains Mono',monospace" font-size="13" fill="#16181c" text-anchor="middle" dominant-baseline="central">3</text><rect x="288.5" y="118" width="32" height="26" rx="4" fill="#fbfbfa" stroke="#43507e" stroke-width="1.2"/><text x="304.5" y="131" font-family="'JetBrains Mono',monospace" font-size="13" fill="#16181c" text-anchor="middle" dominant-baseline="central">6</text><rect x="323.5" y="118" width="32" height="26" rx="4" fill="#fbfbfa" stroke="#43507e" stroke-width="1.2"/><text x="339.5" y="131" font-family="'JetBrains Mono',monospace" font-size="13" fill="#16181c" text-anchor="middle" dominant-baseline="central">8</text><rect x="44.5" y="182" width="32" height="26" rx="4" fill="#fbfbfa" stroke="#43507e" stroke-width="1.2"/><text x="60.5" y="195" font-family="'JetBrains Mono',monospace" font-size="13" fill="#16181c" text-anchor="middle" dominant-baseline="central">5</text><rect x="79.5" y="182" width="32" height="26" rx="4" fill="#fbfbfa" stroke="#43507e" stroke-width="1.2"/><text x="95.5" y="195" font-family="'JetBrains Mono',monospace" font-size="13" fill="#16181c" text-anchor="middle" dominant-baseline="central">2</text><rect x="131.5" y="182" width="32" height="26" rx="4" fill="#fbfbfa" stroke="#43507e" stroke-width="1.2"/><text x="147.5" y="195" font-family="'JetBrains Mono',monospace" font-size="13" fill="#16181c" text-anchor="middle" dominant-baseline="central">4</text><rect x="166.5" y="182" width="32" height="26" rx="4" fill="#fbfbfa" stroke="#43507e" stroke-width="1.2"/><text x="182.5" y="195" font-family="'JetBrains Mono',monospace" font-size="13" fill="#16181c" text-anchor="middle" dominant-baseline="central">7</text><rect x="218.5" y="182" width="32" height="26" rx="4" fill="#fbfbfa" stroke="#43507e" stroke-width="1.2"/><text x="234.5" y="195" font-family="'JetBrains Mono',monospace" font-size="13" fill="#16181c" text-anchor="middle" dominant-baseline="central">1</text><rect x="253.5" y="182" width="32" height="26" rx="4" fill="#fbfbfa" stroke="#43507e" stroke-width="1.2"/><text x="269.5" y="195" font-family="'JetBrains Mono',monospace" font-size="13" fill="#16181c" text-anchor="middle" dominant-baseline="central">3</text><rect x="305.5" y="182" width="32" height="26" rx="4" fill="#fbfbfa" stroke="#43507e" stroke-width="1.2"/><text x="321.5" y="195" font-family="'JetBrains Mono',monospace" font-size="13" fill="#16181c" text-anchor="middle" dominant-baseline="central">6</text><rect x="340.5" y="182" width="32" height="26" rx="4" fill="#fbfbfa" stroke="#43507e" stroke-width="1.2"/><text x="356.5" y="195" font-family="'JetBrains Mono',monospace" font-size="13" fill="#16181c" text-anchor="middle" dominant-baseline="central">8</text><rect x="10.5" y="246" width="32" height="26" rx="4" fill="#fbfbfa" stroke="#43507e" stroke-width="1.2"/><text x="26.5" y="259" font-family="'JetBrains Mono',monospace" font-size="13" fill="#16181c" text-anchor="middle" dominant-baseline="central">5</text><rect x="62.5" y="246" width="32" height="26" rx="4" fill="#fbfbfa" stroke="#43507e" stroke-width="1.2"/><text x="78.5" y="259" font-family="'JetBrains Mono',monospace" font-size="13" fill="#16181c" text-anchor="middle" dominant-baseline="central">2</text><rect x="114.5" y="246" width="32" height="26" rx="4" fill="#fbfbfa" stroke="#43507e" stroke-width="1.2"/><text x="130.5" y="259" font-family="'JetBrains Mono',monospace" font-size="13" fill="#16181c" text-anchor="middle" dominant-baseline="central">4</text><rect x="166.5" y="246" width="32" height="26" rx="4" fill="#fbfbfa" stroke="#43507e" stroke-width="1.2"/><text x="182.5" y="259" font-family="'JetBrains Mono',monospace" font-size="13" fill="#16181c" text-anchor="middle" dominant-baseline="central">7</text><rect x="218.5" y="246" width="32" height="26" rx="4" fill="#fbfbfa" stroke="#43507e" stroke-width="1.2"/><text x="234.5" y="259" font-family="'JetBrains Mono',monospace" font-size="13" fill="#16181c" text-anchor="middle" dominant-baseline="central">1</text><rect x="270.5" y="246" width="32" height="26" rx="4" fill="#fbfbfa" stroke="#43507e" stroke-width="1.2"/><text x="286.5" y="259" font-family="'JetBrains Mono',monospace" font-size="13" fill="#16181c" text-anchor="middle" dominant-baseline="central">3</text><rect x="322.5" y="246" width="32" height="26" rx="4" fill="#fbfbfa" stroke="#43507e" stroke-width="1.2"/><text x="338.5" y="259" font-family="'JetBrains Mono',monospace" font-size="13" fill="#16181c" text-anchor="middle" dominant-baseline="central">6</text><rect x="374.5" y="246" width="32" height="26" rx="4" fill="#fbfbfa" stroke="#43507e" stroke-width="1.2"/><text x="390.5" y="259" font-family="'JetBrains Mono',monospace" font-size="13" fill="#16181c" text-anchor="middle" dominant-baseline="central">8</text><rect x="44.5" y="310" width="32" height="26" rx="4" fill="#fbfbfa" stroke="#43507e" stroke-width="1.2"/><text x="60.5" y="323" font-family="'JetBrains Mono',monospace" font-size="13" fill="#16181c" text-anchor="middle" dominant-baseline="central">2</text><rect x="79.5" y="310" width="32" height="26" rx="4" fill="#fbfbfa" stroke="#43507e" stroke-width="1.2"/><text x="95.5" y="323" font-family="'JetBrains Mono',monospace" font-size="13" fill="#16181c" text-anchor="middle" dominant-baseline="central">5</text><rect x="131.5" y="310" width="32" height="26" rx="4" fill="#fbfbfa" stroke="#43507e" stroke-width="1.2"/><text x="147.5" y="323" font-family="'JetBrains Mono',monospace" font-size="13" fill="#16181c" text-anchor="middle" dominant-baseline="central">4</text><rect x="166.5" y="310" width="32" height="26" rx="4" fill="#fbfbfa" stroke="#43507e" stroke-width="1.2"/><text x="182.5" y="323" font-family="'JetBrains Mono',monospace" font-size="13" fill="#16181c" text-anchor="middle" dominant-baseline="central">7</text><rect x="218.5" y="310" width="32" height="26" rx="4" fill="#fbfbfa" stroke="#43507e" stroke-width="1.2"/><text x="234.5" y="323" font-family="'JetBrains Mono',monospace" font-size="13" fill="#16181c" text-anchor="middle" dominant-baseline="central">1</text><rect x="253.5" y="310" width="32" height="26" rx="4" fill="#fbfbfa" stroke="#43507e" stroke-width="1.2"/><text x="269.5" y="323" font-family="'JetBrains Mono',monospace" font-size="13" fill="#16181c" text-anchor="middle" dominant-baseline="central">3</text><rect x="305.5" y="310" width="32" height="26" rx="4" fill="#fbfbfa" stroke="#43507e" stroke-width="1.2"/><text x="321.5" y="323" font-family="'JetBrains Mono',monospace" font-size="13" fill="#16181c" text-anchor="middle" dominant-baseline="central">6</text><rect x="340.5" y="310" width="32" height="26" rx="4" fill="#fbfbfa" stroke="#43507e" stroke-width="1.2"/><text x="356.5" y="323" font-family="'JetBrains Mono',monospace" font-size="13" fill="#16181c" text-anchor="middle" dominant-baseline="central">8</text><rect x="61.5" y="374" width="32" height="26" rx="4" fill="#fbfbfa" stroke="#43507e" stroke-width="1.2"/><text x="77.5" y="387" font-family="'JetBrains Mono',monospace" font-size="13" fill="#16181c" text-anchor="middle" dominant-baseline="central">2</text><rect x="96.5" y="374" width="32" height="26" rx="4" fill="#fbfbfa" stroke="#43507e" stroke-width="1.2"/><text x="112.5" y="387" font-family="'JetBrains Mono',monospace" font-size="13" fill="#16181c" text-anchor="middle" dominant-baseline="central">4</text><rect x="131.5" y="374" width="32" height="26" rx="4" fill="#fbfbfa" stroke="#43507e" stroke-width="1.2"/><text x="147.5" y="387" font-family="'JetBrains Mono',monospace" font-size="13" fill="#16181c" text-anchor="middle" dominant-baseline="central">5</text><rect x="166.5" y="374" width="32" height="26" rx="4" fill="#fbfbfa" stroke="#43507e" stroke-width="1.2"/><text x="182.5" y="387" font-family="'JetBrains Mono',monospace" font-size="13" fill="#16181c" text-anchor="middle" dominant-baseline="central">7</text><rect x="218.5" y="374" width="32" height="26" rx="4" fill="#fbfbfa" stroke="#43507e" stroke-width="1.2"/><text x="234.5" y="387" font-family="'JetBrains Mono',monospace" font-size="13" fill="#16181c" text-anchor="middle" dominant-baseline="central">1</text><rect x="253.5" y="374" width="32" height="26" rx="4" fill="#fbfbfa" stroke="#43507e" stroke-width="1.2"/><text x="269.5" y="387" font-family="'JetBrains Mono',monospace" font-size="13" fill="#16181c" text-anchor="middle" dominant-baseline="central">3</text><rect x="288.5" y="374" width="32" height="26" rx="4" fill="#fbfbfa" stroke="#43507e" stroke-width="1.2"/><text x="304.5" y="387" font-family="'JetBrains Mono',monospace" font-size="13" fill="#16181c" text-anchor="middle" dominant-baseline="central">6</text><rect x="323.5" y="374" width="32" height="26" rx="4" fill="#fbfbfa" stroke="#43507e" stroke-width="1.2"/><text x="339.5" y="387" font-family="'JetBrains Mono',monospace" font-size="13" fill="#16181c" text-anchor="middle" dominant-baseline="central">8</text><rect x="70.0" y="438" width="32" height="26" rx="4" fill="#fbfbfa" stroke="#43507e" stroke-width="1.2"/><text x="86.0" y="451" font-family="'JetBrains Mono',monospace" font-size="13" fill="#16181c" text-anchor="middle" dominant-baseline="central">1</text><rect x="105.0" y="438" width="32" height="26" rx="4" fill="#fbfbfa" stroke="#43507e" stroke-width="1.2"/><text x="121.0" y="451" font-family="'JetBrains Mono',monospace" font-size="13" fill="#16181c" text-anchor="middle" dominant-baseline="central">2</text><rect x="140.0" y="438" width="32" height="26" rx="4" fill="#fbfbfa" stroke="#43507e" stroke-width="1.2"/><text x="156.0" y="451" font-family="'JetBrains Mono',monospace" font-size="13" fill="#16181c" text-anchor="middle" dominant-baseline="central">3</text><rect x="175.0" y="438" width="32" height="26" rx="4" fill="#fbfbfa" stroke="#43507e" stroke-width="1.2"/><text x="191.0" y="451" font-family="'JetBrains Mono',monospace" font-size="13" fill="#16181c" text-anchor="middle" dominant-baseline="central">4</text><rect x="210.0" y="438" width="32" height="26" rx="4" fill="#fbfbfa" stroke="#43507e" stroke-width="1.2"/><text x="226.0" y="451" font-family="'JetBrains Mono',monospace" font-size="13" fill="#16181c" text-anchor="middle" dominant-baseline="central">5</text><rect x="245.0" y="438" width="32" height="26" rx="4" fill="#fbfbfa" stroke="#43507e" stroke-width="1.2"/><text x="261.0" y="451" font-family="'JetBrains Mono',monospace" font-size="13" fill="#16181c" text-anchor="middle" dominant-baseline="central">6</text><rect x="280.0" y="438" width="32" height="26" rx="4" fill="#fbfbfa" stroke="#43507e" stroke-width="1.2"/><text x="296.0" y="451" font-family="'JetBrains Mono',monospace" font-size="13" fill="#16181c" text-anchor="middle" dominant-baseline="central">7</text><rect x="315.0" y="438" width="32" height="26" rx="4" fill="#fbfbfa" stroke="#43507e" stroke-width="1.2"/><text x="331.0" y="451" font-family="'JetBrains Mono',monospace" font-size="13" fill="#16181c" text-anchor="middle" dominant-baseline="central">8</text>

<text x="20" y="150" font-family="'Instrument Sans',sans-serif" font-size="13" fill="#43507e" text-anchor="middle" transform="rotate(-90 20 150)" font-weight="600">분할 (Divide)</text>
<text x="20" y="342" font-family="'Instrument Sans',sans-serif" font-size="13" fill="#2a3358" text-anchor="middle" transform="rotate(-90 20 342)" font-weight="600">병합 (Merge)</text>
</svg>